<svg xmlns="http://www.w3.org/2000/svg" id="man-human-avatar-profile-curly-hair-person" width="64" height="64" viewBox="0 0 16 16">
  <g transform="translate(0 -1036.362)">
    <path fill="#ffa40b" fill-rule="evenodd" d="M16 1044.362c0 4.425-3.575 8-8 8s-8-3.575-8-8 3.575-8 8-8 8 3.575 8 8z"></path>
    <path fill="#2a2f3c" d="M6.015 1046.604h3.947v.947H6.015z"></path>
    <circle cx="5.266" cy="1043.062" r=".706" fill="#272a4d"></circle>
    <ellipse cx="8.001" cy="1042.778" fill="#272a4d" rx="2.961" ry="2.791"></ellipse>
    <path fill="#ffce77" fill-rule="evenodd" d="M8.816 1041.92c-.85-.02-2.232.079-2.232.079 0 .588-.776.932-.791 1.531v1.123c.056.796.27 1.352.697 1.693-.05.395-.219.623-.502.832-.334.248-.82.441-1.334.66-.513.22-1.059.484-1.478.948-.317.35-.547.807-.64 1.414A7.966 7.966 0 0 0 8 1052.362a7.965 7.965 0 0 0 5.457-2.156c-.096-.591-.327-1.04-.64-1.377-.417-.45-.957-.69-1.463-.904-.507-.215-.991-.406-1.32-.66-.324-.25-.51-.538-.516-1.09.445-.37.658-.888.677-1.522v-1.459c0-.801-.608-1.273-1.379-1.273z"></path>
    <path fill="#414d6a" fill-rule="evenodd" d="m9.725 1046.86-1.721 2.244-1.72-2.213a1.393 1.393 0 0 1-.276.278c-.334.248-.83.436-1.344.656-.513.22-1.061.503-1.48.969-.319.353-.548.804-.641 1.412A7.965 7.965 0 0 0 8 1052.362a7.964 7.964 0 0 0 5.463-2.162c-.096-.59-.326-1.032-.639-1.371-.416-.45-.94-.685-1.447-.9-.507-.216-.98-.436-1.309-.692a1.245 1.245 0 0 1-.343-.377z"></path>
    <circle cx="8.113" cy="1039.959" r=".597" fill="#272a4d"></circle>
    <circle cx="8.934" cy="1039.971" r=".487" fill="#272a4d"></circle>
    <circle cx="9.987" cy="1040.841" r=".676" fill="#272a4d"></circle>
    <circle cx="9.622" cy="1040.166" r=".365" fill="#272a4d"></circle>
    <circle cx="11.12" cy="1042.083" r=".457" fill="#272a4d"></circle>
    <circle cx="10.767" cy="1041.858" r=".347" fill="#272a4d"></circle>
    <circle cx="11.174" cy="1042.631" r=".414" fill="#272a4d"></circle>
    <circle cx="11.004" cy="1043.13" r=".292" fill="#272a4d"></circle>
    <circle cx="10.663" cy="1041.462" r=".621" fill="#272a4d"></circle>
    <circle cx="11.028" cy="1043.045" r=".56" fill="#272a4d"></circle>
    <circle cx="7.516" cy="1040.007" r=".645" fill="#272a4d"></circle>
    <circle cx="6.828" cy="1040.001" r=".402" fill="#272a4d"></circle>
    <circle cx="5.733" cy="1041.133" r=".645" fill="#272a4d"></circle>
    <circle cx="5.355" cy="1042.022" r=".402" fill="#272a4d"></circle>
    <circle cx="6.407" cy="1040.699" r=".779" fill="#272a4d"></circle>
    <circle cx="5.367" cy="1042.12" r=".803" fill="#272a4d"></circle>
    <path fill="#323b52" d="m6.09 1046.647 1.218 1.577-.65.54c-.217.218-.347.033-.405-.068l-.756-1.23.422-.787c.065-.113.13-.073.17-.032zm3.793 0-1.217 1.577.65.54c.217.218.346.033.405-.068l.755-1.23-.42-.787c-.066-.113-.131-.073-.172-.032z"></path>
    <path fill="#ffce77" d="M7.991 1041.764c1.217 0 2.197.286 2.197 1.48s-.98 2.155-2.197 2.155-2.197-.961-2.197-2.155.98-1.48 2.197-1.48z"></path>
  </g>
</svg>
